<svg xmlns="http://www.w3.org/2000/svg" viewBox="0 0 1024 1024" width="1024" height="1024">
  <defs>
    <linearGradient id="bg" x1="0" y1="0" x2="0" y2="1">
      <stop offset="0" stop-color="#10213f"/>
      <stop offset="1" stop-color="#03050b"/>
    </linearGradient>
    <radialGradient id="halo" cx="50%" cy="48%" r="46%">
      <stop offset="0" stop-color="#2e8bff" stop-opacity="0.5"/>
      <stop offset="1" stop-color="#2e8bff" stop-opacity="0"/>
    </radialGradient>
    <pattern id="grid" width="58" height="58" x="100" y="100" patternUnits="userSpaceOnUse">
      <path d="M58 0H0V58" fill="none" stroke="#2e8bff" stroke-opacity="0.14" stroke-width="2"/>
    </pattern>
    <clipPath id="body">
      <rect x="100" y="100" width="824" height="824" rx="185"/>
    </clipPath>
    <filter id="neon" x="-20%" y="-20%" width="140%" height="140%">
      <feGaussianBlur in="SourceGraphic" stdDeviation="14" result="blur"/>
      <feMerge>
        <feMergeNode in="blur"/>
        <feMergeNode in="blur"/>
        <feMergeNode in="SourceGraphic"/>
      </feMerge>
    </filter>
  </defs>
  <g clip-path="url(#body)">
    <rect x="100" y="100" width="824" height="824" fill="url(#bg)"/>
    <rect x="100" y="100" width="824" height="824" fill="url(#grid)"/>
    <rect x="100" y="100" width="824" height="824" fill="url(#halo)"/>
  </g>
  <rect x="104" y="104" width="816" height="816" rx="181" fill="none" stroke="#25467a" stroke-width="8"/>
  <g filter="url(#neon)">
    <g transform="translate(512 512) scale(15.5) translate(-20 -20)" fill="none" stroke="#38e1ff" stroke-linejoin="round" stroke-linecap="round">
      <path d="M20 3 L35 11.5 V28.5 L20 37 L5 28.5 V11.5 Z" stroke-width="2"/>
      <path d="M20 11 L27.5 15.5 V24.5 L20 29 L12.5 24.5 V15.5 Z" stroke-width="1.4" opacity="0.6"/>
      <path d="M20 3 V11 M35 11.5 L27.5 15.5 M35 28.5 L27.5 24.5 M20 37 V29 M5 28.5 L12.5 24.5 M5 11.5 L12.5 15.5" stroke-width="1.4" opacity="0.75"/>
      <circle cx="20" cy="20" r="3.2" fill="#38e1ff" stroke="none"/>
    </g>
  </g>
</svg>
